<?xml version="1.0" encoding="UTF-8" standalone="no"?>
<svg
   xmlns:dc="http://purl.org/dc/elements/1.1/"
   xmlns:cc="http://creativecommons.org/ns#"
   xmlns:rdf="http://www.w3.org/1999/02/22-rdf-syntax-ns#"
   xmlns:svg="http://www.w3.org/2000/svg"
   xmlns="http://www.w3.org/2000/svg"
   xmlns:sodipodi="http://sodipodi.sourceforge.net/DTD/sodipodi-0.dtd"
   xmlns:inkscape="http://www.inkscape.org/namespaces/inkscape"
   width="3.5in"
   height="2in"
   viewBox="0 0 88.9 50.8"
   version="1.1"
   id="svg8"
   inkscape:version="1.0.2 (e86c870879, 2021-01-15)"
   sodipodi:docname="bizcard.svg">
  <defs
     id="defs2" />
  <sodipodi:namedview
     id="base"
     pagecolor="#ffffff"
     bordercolor="#666666"
     borderopacity="1.0"
     inkscape:pageopacity="0.0"
     inkscape:pageshadow="2"
     inkscape:zoom="1.5150115"
     inkscape:cx="172.8313"
     inkscape:cy="116.1785"
     inkscape:document-units="mm"
     inkscape:current-layer="layer1"
     inkscape:document-rotation="0"
     showgrid="false"
     inkscape:window-width="1920"
     inkscape:window-height="986"
     inkscape:window-x="0"
     inkscape:window-y="57"
     inkscape:window-maximized="0"
     units="in" />
  <metadata
     id="metadata5">
    <rdf:RDF>
      <cc:Work
         rdf:about="">
        <dc:format>image/svg+xml</dc:format>
        <dc:type
           rdf:resource="http://purl.org/dc/dcmitype/StillImage" />
        <dc:title></dc:title>
      </cc:Work>
    </rdf:RDF>
  </metadata>
  <g
     inkscape:label="Layer 1"
     inkscape:groupmode="layer"
     id="layer1">
    <g
       id="g1571"
       transform="matrix(1.2319367,0,0,1.2319367,-1.8360362,-1.9151229)">
      <g
         id="g5089"
         transform="matrix(0.11637916,0,0,0.11637916,7.0080555,8.3629796)"
         inkscape:export-filename="/home/miyuruasuka/THEMELIO/branding/logo-only.png"
         inkscape:export-xdpi="713.52106"
         inkscape:export-ydpi="713.52106"
         style="stroke:#003e30;stroke-opacity:1">
        <g
           id="g1121"
           style="stroke:#000000;stroke-width:1.7;stroke-miterlimit:4;stroke-dasharray:none;stroke-opacity:1">
          <path
             opacity="0.98"
             d="m 43.095773,68.826728 c 19.0225,0 34.4433,-15.4208 34.4433,-34.4433 0,-19.0225 -15.4208,-34.44328082 -34.4433,-34.44328082 -19.0225,0 -34.4432383,15.42078082 -34.4432383,34.44328082 0,19.0225 15.4207383,34.4433 34.4432383,34.4433 z"
             fill="#006e54"
             id="path4"
             style="fill:#178d5e;fill-opacity:1;stroke:#000000;stroke-width:1.7;stroke-miterlimit:4;stroke-dasharray:none;stroke-opacity:1" />
          <g
             id="g1100"
             transform="translate(-37.228905,5.9711443)"
             style="fill:#ffffff;stroke:#000000;stroke-width:1.7;stroke-miterlimit:4;stroke-dasharray:none;stroke-opacity:1">
            <path
               id="path6"
               style="fill:#ffffff;stroke:#000000;stroke-width:1.7;stroke-miterlimit:4;stroke-dasharray:none;stroke-opacity:1"
               d="m 74.685547,4.8378906 c -1.9451,0 -3.66691,0.4038375 -5.162109,1.2109375 -1.4819,0.7939 -2.639057,1.944725 -3.472657,3.453125 -0.8336,1.5083999 -1.25,3.3140689 -1.25,5.4179689 v 0.615234 c 0,2.9639 0.707247,5.585428 2.123047,7.861328 1.4158,2.2626 3.388716,4.03486 5.916016,5.31836 1.511995,0.763883 3.167748,1.294277 4.960937,1.603515 v 3.595703 c 0,2.4214 -0.548284,4.254247 -1.646484,5.498047 -1.085,1.2437 -2.568366,1.865235 -4.447266,1.865235 -2.0113,0 -3.605603,-0.654844 -4.783203,-1.964844 -1.1644,-1.3232 -1.746094,-3.122638 -1.746094,-5.398438 v -8.236328 h -6.232422 v 8.236328 c 0,2.527201 0.535722,4.744991 1.607422,6.650391 1.0718,1.8921 2.567728,3.373513 4.486328,4.445313 1.9318,1.0585 4.181147,1.58789 6.748047,1.58789 2.4611,0 4.630866,-0.502212 6.509766,-1.507812 1.8789,-1.0057 3.34775,-2.455456 4.40625,-4.347656 0.0662,-0.116865 0.123437,-0.239583 0.185547,-0.359376 0.295991,0.237064 0.599744,0.466353 0.921875,0.679688 2.0112,1.3099 4.545062,1.964844 7.601562,1.964844 h 8.355469 V 37.90625 h -8.355469 c -1.9186,0 -3.393681,-0.468803 -4.425781,-1.408203 -1.0189,-0.9527 -1.719716,-2.170344 -2.103516,-3.652344 -0.195008,-0.753147 -0.33966,-1.526122 -0.435546,-2.320312 0.02613,-0.0088 0.0038,-0.0043 0,-0.0059 -0.01478,-0.122724 -0.02079,-0.249343 -0.0332,-0.373047 h 10.511719 v -4.863281 h -10.52539 c 0.09548,-1.034627 0.262644,-2.016953 0.521484,-2.935547 0.4102,-1.4555 1.131963,-2.62084 2.164063,-3.49414 1.0321,-0.8865 2.473671,-1.330078 4.326171,-1.330078 h 8.355469 v -5.121094 h -8.355469 c -2.832076,0 -5.212303,0.580319 -7.154297,1.724609 C 84.053611,11.40231 83.207852,9.2364846 81.710938,7.6367188 79.977638,5.7711185 77.636247,4.8378906 74.685547,4.8378906 Z M 74.40625,10.375 c 1.0983,0 1.939284,0.378612 2.521484,1.132812 0.5822,0.741001 0.873047,1.95046 0.873047,3.63086 v 9.509766 c -0.683249,-0.19466 -1.335736,-0.426553 -1.925781,-0.736329 -1.5745,-0.8336 -2.771397,-1.984325 -3.591797,-3.453125 -0.8203,-1.4687 -1.224137,-3.136353 -1.210937,-5.001953 v -0.714843 c 0,-1.5878 0.305462,-2.7135 0.914062,-3.375 C 72.608228,10.705587 73.41385,10.375 74.40625,10.375 Z"
               transform="translate(0.968262,2.69452)" />
          </g>
        </g>
      </g>
      <text
         xml:space="preserve"
         style="font-style:normal;font-variant:normal;font-weight:normal;font-stretch:normal;font-size:5.5862px;line-height:1.25;font-family:Rubik;-inkscape-font-specification:Rubik;letter-spacing:-0.196681px;fill:#0d4f35;fill-opacity:1;stroke-width:0.116379"
         x="17.139261"
         y="14.445355"
         id="text4073"
         inkscape:export-filename="/home/miyuruasuka/THEMELIO/themelio.org/build/images/logo-whiteback.png"
         inkscape:export-xdpi="337.80701"
         inkscape:export-ydpi="337.80701"><tspan
           sodipodi:role="line"
           id="tspan4071"
           x="17.139261"
           y="14.445355"
           style="font-style:normal;font-variant:normal;font-weight:500;font-stretch:normal;font-size:5.5862px;font-family:'Iosevka Sparkle';-inkscape-font-specification:'Iosevka Sparkle, Medium';font-variant-ligatures:normal;font-variant-caps:normal;font-variant-numeric:normal;font-variant-east-asian:normal;fill:#0d4f35;fill-opacity:1;stroke-width:0.116379">themelio<tspan
   style="fill:#178d5e;fill-opacity:1"
   id="tspan1553">labs</tspan></tspan></text>
    </g>
    <text
       xml:space="preserve"
       style="font-style:normal;font-weight:normal;font-size:2.82222px;line-height:1.25;font-family:sans-serif;letter-spacing:0px;fill:#000000;fill-opacity:1;stroke:none;stroke-width:0.264583"
       x="7.6113081"
       y="33.679188"
       id="text1557"><tspan
         sodipodi:role="line"
         id="tspan1555"
         x="7.6113081"
         y="33.679188"
         style="font-style:normal;font-variant:normal;font-weight:600;font-stretch:normal;font-size:2.82222px;font-family:'Iosevka Aile';-inkscape-font-specification:'Iosevka Aile Semi-Bold';fill:#178d5e;fill-opacity:1;stroke-width:0.264583">Eric Tung</tspan><tspan
         sodipodi:role="line"
         x="7.6113081"
         y="37.270351"
         style="font-style:normal;font-variant:normal;font-weight:600;font-stretch:normal;font-size:2.82222px;font-family:'Iosevka Aile';-inkscape-font-specification:'Iosevka Aile Semi-Bold';fill:#083223;fill-opacity:1;stroke-width:0.264583"
         id="tspan1559">Founder, CEO</tspan><tspan
         sodipodi:role="line"
         x="7.6113081"
         y="40.798126"
         style="font-style:normal;font-variant:normal;font-weight:normal;font-stretch:normal;font-size:2.82222px;font-family:'Iosevka Aile';-inkscape-font-specification:'Iosevka Aile';fill:#083223;fill-opacity:1;stroke-width:0.264583"
         id="tspan1561" /></text>
    <g
       id="g1961"
       transform="translate(-0.52916667)">
      <text
         xml:space="preserve"
         style="font-style:normal;font-weight:normal;font-size:2.82222px;line-height:1.25;font-family:sans-serif;letter-spacing:0px;fill:#000000;fill-opacity:1;stroke:none;stroke-width:0.264583"
         x="47.8004"
         y="33.684834"
         id="text1557-9"><tspan
           sodipodi:role="line"
           x="47.8004"
           y="33.684834"
           style="font-style:normal;font-variant:normal;font-weight:normal;font-stretch:normal;font-size:2.82222px;font-family:Iosevka;-inkscape-font-specification:Iosevka;fill:#083223;fill-opacity:1;stroke-width:0.264583"
           id="tspan1612">eric@themelio.org</tspan><tspan
           sodipodi:role="line"
           x="47.8004"
           y="37.275997"
           style="font-style:normal;font-variant:normal;font-weight:normal;font-stretch:normal;font-size:2.82222px;font-family:Iosevka;-inkscape-font-specification:Iosevka;fill:#083223;fill-opacity:1;stroke-width:0.264583"
           id="tspan1616">@nullchinchilla</tspan><tspan
           sodipodi:role="line"
           x="47.8004"
           y="40.867157"
           style="font-style:normal;font-variant:normal;font-weight:normal;font-stretch:normal;font-size:2.82222px;font-family:Iosevka;-inkscape-font-specification:Iosevka;fill:#083223;fill-opacity:1;stroke-width:0.264583"
           id="tspan1610">https://nullchinchilla.me</tspan></text>
      <g
         style="fill:#1da1f2;fill-opacity:1"
         id="g1709"
         transform="matrix(0.17592113,0,0,0.17592113,36.041086,34.822489)">
        <path
           d="m 5.026,15 c 6.038,0 9.341,-5.003 9.341,-9.334 0,-0.14 0,-0.282 -0.006,-0.422 A 6.685,6.685 0 0 0 16,3.542 6.658,6.658 0 0 1 14.111,4.06 3.301,3.301 0 0 0 15.558,2.243 6.533,6.533 0 0 1 13.471,3.036 3.286,3.286 0 0 0 7.875,6.03 9.325,9.325 0 0 1 1.108,2.601 3.289,3.289 0 0 0 2.126,6.983 3.323,3.323 0 0 1 0.64,6.575 V 6.62 A 3.288,3.288 0 0 0 3.272,9.838 3.203,3.203 0 0 1 2.407,9.953 3.23,3.23 0 0 1 1.793,9.896 3.283,3.283 0 0 0 4.86,12.173 6.588,6.588 0 0 1 0.78,13.58 6.32,6.32 0 0 1 0,13.535 9.344,9.344 0 0 0 5.026,15 Z"
           id="path1698"
           style="fill:#1da1f2;fill-opacity:1" />
      </g>
      <g
         style="fill:#229ed9;fill-opacity:1"
         id="g1768"
         transform="matrix(0.17592113,0,0,0.17592113,39.919582,34.910389)">
        <path
           d="M 16,8 A 8,8 0 1 1 0,8 8,8 0 0 1 16,8 Z M 8.287,5.906 C 7.509,6.23 5.953,6.9 3.621,7.916 3.243,8.066 3.044,8.214 3.026,8.358 2.996,8.601 3.301,8.697 3.716,8.828 L 3.891,8.883 C 4.299,9.016 4.849,9.171 5.134,9.177 5.394,9.183 5.683,9.077 6.002,8.857 8.181,7.386 9.306,6.643 9.376,6.627 9.426,6.615 9.496,6.601 9.542,6.643 9.589,6.684 9.584,6.763 9.579,6.784 9.549,6.913 8.352,8.025 7.733,8.601 7.54,8.781 7.403,8.908 7.375,8.937 A 8.154,8.154 0 0 1 7.187,9.123 c -0.38,0.366 -0.664,0.64 0.015,1.088 0.327,0.216 0.589,0.393 0.85,0.571 0.284,0.194 0.568,0.387 0.936,0.629 0.093,0.06 0.183,0.125 0.27,0.187 0.331,0.236 0.63,0.448 0.997,0.414 0.214,-0.02 0.435,-0.22 0.547,-0.82 0.265,-1.417 0.786,-4.486 0.906,-5.751 A 1.426,1.426 0 0 0 11.695,5.126 0.337,0.337 0 0 0 11.581,4.909 0.526,0.526 0 0 0 11.271,4.816 c -0.3,0.005 -0.763,0.166 -2.984,1.09 z"
           id="path1757"
           style="fill:#229ed9;fill-opacity:1" />
      </g>
      <g
         style="fill:currentColor"
         id="g1827"
         transform="matrix(0.17592113,0,0,0.17592113,43.798082,34.945109)">
        <path
           d="M 8,0 C 3.58,0 0,3.58 0,8 c 0,3.54 2.29,6.53 5.47,7.59 0.4,0.07 0.55,-0.17 0.55,-0.38 0,-0.19 -0.01,-0.82 -0.01,-1.49 C 4,14.09 3.48,13.23 3.32,12.78 3.23,12.55 2.84,11.84 2.5,11.65 2.22,11.5 1.82,11.13 2.49,11.12 3.12,11.11 3.57,11.7 3.72,11.94 4.44,13.15 5.59,12.81 6.05,12.6 6.12,12.08 6.33,11.73 6.56,11.53 4.78,11.33 2.92,10.64 2.92,7.58 2.92,6.71 3.23,5.99 3.74,5.43 3.66,5.23 3.38,4.41 3.82,3.31 c 0,0 0.67,-0.21 2.2,0.82 0.64,-0.18 1.32,-0.27 2,-0.27 0.68,0 1.36,0.09 2,0.27 1.53,-1.04 2.2,-0.82 2.2,-0.82 0.44,1.1 0.16,1.92 0.08,2.12 0.51,0.56 0.82,1.27 0.82,2.15 0,3.07 -1.87,3.75 -3.65,3.95 0.29,0.25 0.54,0.73 0.54,1.48 0,1.07 -0.01,1.93 -0.01,2.2 0,0.21 0.15,0.46 0.55,0.38 A 8.012,8.012 0 0 0 16,8 C 16,3.58 12.42,0 8,0 Z"
           id="path1816" />
      </g>
      <g
         style="fill:currentColor"
         id="g1886"
         transform="matrix(0.18115037,0,0,0.18115037,43.728995,31.540856)">
        <path
           d="M 0,4 A 2,2 0 0 1 2,2 h 12 a 2,2 0 0 1 2,2 v 8 a 2,2 0 0 1 -2,2 H 2 A 2,2 0 0 1 0,12 Z M 2,3 A 1,1 0 0 0 1,4 v 0.217 l 7,4.2 7,-4.2 V 4 A 1,1 0 0 0 14,3 Z M 15,5.383 10.292,8.208 15,11.105 Z M 14.966,12.259 9.326,8.788 8,9.583 6.674,8.788 1.034,12.258 A 1,1 0 0 0 2,13 h 12 a 1,1 0 0 0 0.966,-0.741 z M 1,11.105 5.708,8.208 1,5.383 Z"
           id="path1875" />
      </g>
      <g
         style="fill:currentColor"
         id="g1945"
         transform="matrix(0.18087144,0,0,0.18087144,43.755466,38.433824)">
        <path
           d="M 0,8 A 8,8 0 1 1 16,8 8,8 0 0 1 0,8 Z M 7.5,1.077 C 6.83,1.281 6.165,1.897 5.613,2.932 5.47,3.2 5.337,3.492 5.218,3.804 5.923,3.961 6.69,4.061 7.5,4.091 Z M 4.249,3.539 C 4.391,3.155 4.553,2.795 4.73,2.461 A 6.7,6.7 0 0 1 5.327,1.528 7.01,7.01 0 0 0 3.051,3.05 C 3.413,3.234 3.814,3.399 4.249,3.54 Z M 3.509,7.5 C 3.545,6.43 3.697,5.413 3.945,4.492 A 9.124,9.124 0 0 1 2.38,3.825 6.964,6.964 0 0 0 1.018,7.5 h 2.49 z m 1.4,-2.741 A 12.344,12.344 0 0 0 4.509,7.5 H 7.5 V 5.091 C 6.59,5.061 5.717,4.946 4.909,4.759 Z M 8.5,5.09 V 7.5 h 2.99 A 12.342,12.342 0 0 0 11.091,4.759 C 10.283,4.946 9.41,5.06 8.5,5.091 Z M 4.51,8.5 c 0.035,0.987 0.176,1.914 0.399,2.741 A 13.612,13.612 0 0 1 7.5,10.91 V 8.5 Z m 3.99,0 v 2.409 c 0.91,0.03 1.783,0.145 2.591,0.332 0.223,-0.827 0.364,-1.754 0.4,-2.741 z m -3.282,3.696 c 0.12,0.312 0.252,0.604 0.395,0.872 0.552,1.035 1.218,1.65 1.887,1.855 V 11.91 c -0.81,0.03 -1.577,0.13 -2.282,0.287 z m 0.11,2.276 A 6.696,6.696 0 0 1 4.73,13.539 8.853,8.853 0 0 1 4.249,12.46 8.38,8.38 0 0 0 3.051,12.95 7.01,7.01 0 0 0 5.327,14.472 Z M 3.945,11.508 A 13.36,13.36 0 0 1 3.508,8.5 h -2.49 a 6.963,6.963 0 0 0 1.362,3.675 c 0.47,-0.258 0.995,-0.482 1.565,-0.667 z m 6.728,2.964 a 7.009,7.009 0 0 0 2.275,-1.521 8.376,8.376 0 0 0 -1.197,-0.49 8.853,8.853 0 0 1 -0.481,1.078 6.688,6.688 0 0 1 -0.597,0.933 z M 8.5,11.909 v 3.014 c 0.67,-0.204 1.335,-0.82 1.887,-1.855 0.143,-0.268 0.276,-0.56 0.395,-0.872 A 12.63,12.63 0 0 0 8.5,11.91 Z m 3.555,-0.401 c 0.57,0.185 1.095,0.409 1.565,0.667 A 6.963,6.963 0 0 0 14.982,8.5 h -2.49 a 13.36,13.36 0 0 1 -0.437,3.008 z M 14.982,7.5 A 6.963,6.963 0 0 0 13.62,3.825 c -0.47,0.258 -0.995,0.482 -1.565,0.667 0.248,0.92 0.4,1.938 0.437,3.008 z M 11.27,2.461 c 0.177,0.334 0.339,0.694 0.482,1.078 a 8.368,8.368 0 0 0 1.196,-0.49 7.01,7.01 0 0 0 -2.275,-1.52 c 0.218,0.283 0.418,0.597 0.597,0.932 z M 10.782,3.804 A 7.765,7.765 0 0 0 10.387,2.932 C 9.835,1.897 9.17,1.282 8.5,1.077 V 4.09 C 9.31,4.06 10.077,3.96 10.782,3.803 Z"
           id="path1934" />
      </g>
    </g>
  </g>
</svg>
