<?xml version="1.0" encoding="UTF-8" standalone="no"?>
<svg
   xmlns:dc="http://purl.org/dc/elements/1.1/"
   xmlns:cc="http://creativecommons.org/ns#"
   xmlns:rdf="http://www.w3.org/1999/02/22-rdf-syntax-ns#"
   xmlns:svg="http://www.w3.org/2000/svg"
   xmlns="http://www.w3.org/2000/svg"
   xmlns:sodipodi="http://sodipodi.sourceforge.net/DTD/sodipodi-0.dtd"
   xmlns:inkscape="http://www.inkscape.org/namespaces/inkscape"
   width="196.44156"
   height="143.65196"
   viewBox="0 0 196.44156 143.65196"
   fill="none"
   version="1.1"
   id="svg10"
   sodipodi:docname="new-logo-centered.svg"
   inkscape:version="1.0.2 (e86c870879, 2021-01-15)"
   inkscape:export-filename="/home/miyuruasuka/THEMELIO/branding/new-logo-centered.png"
   inkscape:export-xdpi="684.32062"
   inkscape:export-ydpi="684.32062">
  <metadata
     id="metadata255">
    <rdf:RDF>
      <cc:Work
         rdf:about="">
        <dc:format>image/svg+xml</dc:format>
        <dc:type
           rdf:resource="http://purl.org/dc/dcmitype/StillImage" />
        <dc:title></dc:title>
      </cc:Work>
    </rdf:RDF>
  </metadata>
  <defs
     id="defs14" />
  <sodipodi:namedview
     id="namedview12"
     pagecolor="#ffffff"
     bordercolor="#666666"
     borderopacity="1.0"
     inkscape:pageshadow="2"
     inkscape:pageopacity="0.0"
     inkscape:pagecheckerboard="0"
     showgrid="false"
     inkscape:zoom="0.68931908"
     inkscape:cx="106.53736"
     inkscape:cy="221.7273"
     inkscape:window-width="1920"
     inkscape:window-height="1010"
     inkscape:window-x="0"
     inkscape:window-y="33"
     inkscape:window-maximized="0"
     inkscape:current-layer="svg10"
     inkscape:document-rotation="0"
     showguides="false">
    <inkscape:grid
       type="xygrid"
       id="grid1116"
       originx="65.736123"
       originy="22.299647" />
  </sodipodi:namedview>
  <g
     id="g5089"
     transform="matrix(1.3038771,0,0,1.3038771,42.02915,1.1863363)"
     inkscape:export-filename="/home/miyuruasuka/THEMELIO/branding/logo-only.png"
     inkscape:export-xdpi="713.52106"
     inkscape:export-ydpi="713.52106"
     style="stroke:#003e30;stroke-opacity:1">
    <g
       id="g1121"
       style="stroke:#000000;stroke-width:1.7;stroke-miterlimit:4;stroke-dasharray:none;stroke-opacity:1">
      <path
         opacity="0.98"
         d="m 43.095773,68.826728 c 19.0225,0 34.4433,-15.4208 34.4433,-34.4433 0,-19.0225 -15.4208,-34.44328082 -34.4433,-34.44328082 -19.0225,0 -34.4432383,15.42078082 -34.4432383,34.44328082 0,19.0225 15.4207383,34.4433 34.4432383,34.4433 z"
         fill="#006e54"
         id="path4"
         style="fill:#178d5e;fill-opacity:1;stroke:#000000;stroke-width:1.7;stroke-miterlimit:4;stroke-dasharray:none;stroke-opacity:1" />
      <g
         id="g1100"
         transform="translate(-37.228905,5.9711443)"
         style="fill:#ffffff;stroke:#000000;stroke-width:1.7;stroke-miterlimit:4;stroke-dasharray:none;stroke-opacity:1">
        <path
           id="path6"
           style="fill:#ffffff;stroke:#000000;stroke-width:1.7;stroke-miterlimit:4;stroke-dasharray:none;stroke-opacity:1"
           d="m 74.685547,4.8378906 c -1.9451,0 -3.66691,0.4038375 -5.162109,1.2109375 -1.4819,0.7939 -2.639057,1.944725 -3.472657,3.453125 -0.8336,1.5083999 -1.25,3.3140689 -1.25,5.4179689 v 0.615234 c 0,2.9639 0.707247,5.585428 2.123047,7.861328 1.4158,2.2626 3.388716,4.03486 5.916016,5.31836 1.511995,0.763883 3.167748,1.294277 4.960937,1.603515 v 3.595703 c 0,2.4214 -0.548284,4.254247 -1.646484,5.498047 -1.085,1.2437 -2.568366,1.865235 -4.447266,1.865235 -2.0113,0 -3.605603,-0.654844 -4.783203,-1.964844 -1.1644,-1.3232 -1.746094,-3.122638 -1.746094,-5.398438 v -8.236328 h -6.232422 v 8.236328 c 0,2.527201 0.535722,4.744991 1.607422,6.650391 1.0718,1.8921 2.567728,3.373513 4.486328,4.445313 1.9318,1.0585 4.181147,1.58789 6.748047,1.58789 2.4611,0 4.630866,-0.502212 6.509766,-1.507812 1.8789,-1.0057 3.34775,-2.455456 4.40625,-4.347656 0.0662,-0.116865 0.123437,-0.239583 0.185547,-0.359376 0.295991,0.237064 0.599744,0.466353 0.921875,0.679688 2.0112,1.3099 4.545062,1.964844 7.601562,1.964844 h 8.355469 V 37.90625 h -8.355469 c -1.9186,0 -3.393681,-0.468803 -4.425781,-1.408203 -1.0189,-0.9527 -1.719716,-2.170344 -2.103516,-3.652344 -0.195008,-0.753147 -0.33966,-1.526122 -0.435546,-2.320312 0.02613,-0.0088 0.0038,-0.0043 0,-0.0059 -0.01478,-0.122724 -0.02079,-0.249343 -0.0332,-0.373047 h 10.511719 v -4.863281 h -10.52539 c 0.09548,-1.034627 0.262644,-2.016953 0.521484,-2.935547 0.4102,-1.4555 1.131963,-2.62084 2.164063,-3.49414 1.0321,-0.8865 2.473671,-1.330078 4.326171,-1.330078 h 8.355469 v -5.121094 h -8.355469 c -2.832076,0 -5.212303,0.580319 -7.154297,1.724609 C 84.053611,11.40231 83.207852,9.2364846 81.710938,7.6367188 79.977638,5.7711185 77.636247,4.8378906 74.685547,4.8378906 Z M 74.40625,10.375 c 1.0983,0 1.939284,0.378612 2.521484,1.132812 0.5822,0.741001 0.873047,1.95046 0.873047,3.63086 v 9.509766 c -0.683249,-0.19466 -1.335736,-0.426553 -1.925781,-0.736329 -1.5745,-0.8336 -2.771397,-1.984325 -3.591797,-3.453125 -0.8203,-1.4687 -1.224137,-3.136353 -1.210937,-5.001953 v -0.714843 c 0,-1.5878 0.305462,-2.7135 0.914062,-3.375 C 72.608228,10.705587 73.41385,10.375 74.40625,10.375 Z"
           transform="translate(0.968262,2.69452)" />
      </g>
    </g>
  </g>
  <text
     xml:space="preserve"
     style="font-style:normal;font-variant:normal;font-weight:normal;font-stretch:normal;font-size:48px;line-height:1.25;font-family:Rubik;-inkscape-font-specification:Rubik;letter-spacing:-1.69px;fill:#003e30;fill-opacity:1"
     x="-2.7360001"
     y="143.26796"
     id="text4073"
     inkscape:export-filename="/home/miyuruasuka/THEMELIO/themelio.org/build/images/logo-whiteback.png"
     inkscape:export-xdpi="337.80701"
     inkscape:export-ydpi="337.80701"><tspan
       sodipodi:role="line"
       id="tspan4071"
       x="-2.7360001"
       y="143.26796"
       style="font-style:normal;font-variant:normal;font-weight:500;font-stretch:normal;font-size:48px;font-family:'Iosevka Sparkle';-inkscape-font-specification:'Iosevka Sparkle, Medium';font-variant-ligatures:normal;font-variant-caps:normal;font-variant-numeric:normal;font-variant-east-asian:normal;fill:#003e30;fill-opacity:1">themelio</tspan></text>
</svg>
