<?xml version="1.0" encoding="UTF-8" standalone="no"?>
<svg
   xmlns:dc="http://purl.org/dc/elements/1.1/"
   xmlns:cc="http://creativecommons.org/ns#"
   xmlns:rdf="http://www.w3.org/1999/02/22-rdf-syntax-ns#"
   xmlns:svg="http://www.w3.org/2000/svg"
   xmlns="http://www.w3.org/2000/svg"
   xmlns:sodipodi="http://sodipodi.sourceforge.net/DTD/sodipodi-0.dtd"
   xmlns:inkscape="http://www.inkscape.org/namespaces/inkscape"
   width="1000"
   height="500"
   viewBox="0 0 264.58333 132.29167"
   version="1.1"
   id="svg3857"
   sodipodi:docname="castle.svg"
   inkscape:version="1.0.2 (e86c870879, 2021-01-15)"
   inkscape:export-filename="/home/miyuruasuka/THEMELIO/themelio.org/images/hero-bg.png"
   inkscape:export-xdpi="191.99998"
   inkscape:export-ydpi="191.99998">
  <defs
     id="defs3851">
    <filter
       inkscape:collect="always"
       style="color-interpolation-filters:sRGB"
       id="filter897"
       x="-1.0449523e-05"
       width="1.0000209"
       y="-1.1174803e-05"
       height="1.0000223">
      <feGaussianBlur
         inkscape:collect="always"
         stdDeviation="0.00047707365"
         id="feGaussianBlur899" />
    </filter>
    <filter
       inkscape:collect="always"
       style="color-interpolation-filters:sRGB"
       id="filter3745"
       x="-1.2185896e-06"
       width="1.0000024"
       y="-1.181969e-06"
       height="1.0000024">
      <feGaussianBlur
         inkscape:collect="always"
         stdDeviation="6.1560887e-05"
         id="feGaussianBlur3747" />
    </filter>
  </defs>
  <sodipodi:namedview
     id="base"
     pagecolor="#f8fbf8"
     bordercolor="#666666"
     borderopacity="1.0"
     inkscape:pageopacity="0"
     inkscape:pageshadow="2"
     inkscape:zoom="1.4627331"
     inkscape:cx="595.09282"
     inkscape:cy="185.67312"
     inkscape:document-units="mm"
     inkscape:current-layer="layer2"
     inkscape:document-rotation="0"
     showgrid="true"
     units="px"
     inkscape:pagecheckerboard="false"
     inkscape:window-width="2560"
     inkscape:window-height="1342"
     inkscape:window-x="0"
     inkscape:window-y="0"
     inkscape:window-maximized="1">
    <inkscape:grid
       gridanglex="30"
       gridanglez="30"
       empspacing="5"
       type="axonomgrid"
       id="grid4420"
       enabled="true"
       visible="true" />
  </sodipodi:namedview>
  <metadata
     id="metadata3854">
    <rdf:RDF>
      <cc:Work
         rdf:about="">
        <dc:format>image/svg+xml</dc:format>
        <dc:type
           rdf:resource="http://purl.org/dc/dcmitype/StillImage" />
        <dc:title></dc:title>
      </cc:Work>
    </rdf:RDF>
  </metadata>
  <g
     inkscape:groupmode="layer"
     id="layer2"
     inkscape:label="Layer 2" />
  <g
     inkscape:label="Layer 1"
     inkscape:groupmode="layer"
     id="layer1">
    <g
       id="g3741"
       style="stroke-width:0.6;stroke-miterlimit:4;stroke-dasharray:none;opacity:0.969;filter:url(#filter3745);stroke:#5eb1bf;stroke-opacity:0.35819635;fill:none;fill-opacity:1">
      <g
         id="g1274"
         style="stroke-width:0.6;stroke-miterlimit:4;stroke-dasharray:none;stroke:#5eb1bf;stroke-opacity:0.35819635;fill:none;fill-opacity:1">
        <g
           id="g1190"
           style="stroke-width:0.6;stroke-miterlimit:4;stroke-dasharray:none;stroke:#5eb1bf;stroke-opacity:0.35819635;fill:none;fill-opacity:1" />
      </g>
      <g
         id="g3368"
         style="stroke-width:0.6;stroke-miterlimit:4;stroke-dasharray:none;stroke:#5eb1bf;stroke-opacity:0.35819635;fill:none;fill-opacity:1" />
      <path
         id="path3398"
         style="fill:none;stroke:#5eb1bf;stroke-width:0.6;stroke-linecap:butt;stroke-linejoin:miter;stroke-opacity:0.35819635;stroke-miterlimit:4;stroke-dasharray:none;fill-opacity:1"
         d="m 199.18584,59.999998 17.32051,10.000001 m 0,-5 -12.99038,-7.500001 m -4.33013,2.5 4.33013,-2.5 m -17.32051,0 4.33013,2.5 m 0,0 -17.32051,10.000001 m 12.99038,-12.500001 -12.99038,7.500001 M 212.17622,32.500001 V 62.5 M 177.53521,32.500001 V 62.5 m 17.3205,-20.000001 v 14.999999 m 0,-37.999998 15.58846,9 m -15.58846,-9 -15.58845,9 m 15.58846,8.999999 V 42.5 m 17.32051,-10 4.33012,-2.5 V 24.999999 M 210.44418,28.5 l 1.73205,1.000001 M 186.19547,32.5 l 0.86602,-0.499999 0.86603,-0.500002 m 13.8564,0 1.73205,1.000001 m 4.33013,-2.5 2.59808,-1.5 v -1.999999 m 0,0 z m 0,0 1.73205,0.999998 m -6.06218,1.5 L 207.8461,30 m -6.06218,3.5 1.73205,1.000001 m -1.73205,-3.000002 V 33.5 L 199.18585,35 M 197.4538,33.999999 199.18585,35 m -8.66026,0 1.73205,-1.000001 M 186.19547,34.500001 187.92752,33.5 m 0,-2.000001 V 33.5 l 2.59807,1.5 m 15.58846,-12 1.73205,-1 m 2.59808,1.499999 1.73205,-0.999998 m -4.33013,-2.5 V 22 l 2.59808,1.499999 m -4.33013,-2.5 V 23 l 4.33013,2.500001 v -2.000002 m -8.66026,-4.999997 1.73205,-1.000001 M 197.4538,18 l 1.73205,-1.000001 m 0,-1.999998 v 1.999998 l 2.59807,1.500003 M 197.4538,16.000001 V 18 l 4.33012,2.5 V 18.500002 M 177.53521,29.500001 179.26726,28.5 m 2.59808,-6.5 1.73205,1 m 6.9282,-6.000001 L 192.25764,18 m -6.06217,-0.499999 1.73205,1.000001 m 2.59807,-3.500001 v 1.999998 l -2.59807,1.500003 m 0,0 V 20.5 l 4.33012,-2.5 v -1.999999 m -10.3923,4 V 22 l -2.59808,1.499999 m 0,0 v 2.000002 L 183.59739,23 V 20.999999 M 179.26726,28.5 181.86534,30 m 0,0 1.73205,-1.000001 m -4.33013,-2.499998 V 28.5 m 4.33013,-7.500001 -1.73205,-0.999998 m -4.33013,2.5 1.73205,0.999998 m -1.73205,4 1.73205,-0.999998 m 4.33013,-5.500002 4.33013,-2.499997 m -11.25833,6.499997 2.59807,-1.5 m 15.58846,-8.999997 2.59808,1.499999 m -2.59808,-1.499999 -2.59808,1.499999 m 13.85641,4.999998 -4.33013,-2.499997 m 8.66026,4.999997 0.86602,0.500002 m 0,0 1.73205,0.999998 m -2.59807,1.500002 1.73205,-1 0.86603,-0.5 m -11.25834,6.499998 4.33013,-2.5 m -11.25833,6.5 2.59808,-1.5 m -5.19616,0 2.59808,1.5 m -11.25833,-6.5 4.33013,2.5 m -11.25833,-6.5 2.59807,1.500002 m 28.57884,5.5 4.33013,-2.5 m 0,-2.000002 v 2.000002 M 207.8461,30 v 2.000001 M 216.50635,25 212.17623,27.5 M 199.18585,35 v 2.000001 l 4.33012,-2.5 V 32.5 m -17.3205,0 v 2.000001 l 4.33012,2.5 V 35 m -12.99038,-7.500001 v 2.000002 l 4.33013,2.5 V 30 m 21.65063,2.5 4.33013,-2.5 m -12.99038,7.5 4.33013,-2.5 m -8.66026,0 4.33013,2.5 m -12.99038,-7.5 4.33013,2.5 m 30.31088,-7.500001 -4.33012,-2.499998 m -8.66026,-5 4.33013,2.5 m -17.32051,-5 4.33013,-2.500001 4.33013,2.500001 m -17.32051,5 4.33013,-2.5 m 8.66025,25 L 212.17623,32.5 m -34.64102,0 17.32051,10.000001 m -21.65063,-17.500002 4.33012,2.5 m -4.33012,-2.5 4.33012,-2.499998 m 0,9.999999 -4.33012,-2.5 V 24.999999 M 225.1666,100 l -12.99038,7.5 m 12.99038,-27.499999 -12.99038,7.500001 m 8.66026,-10.000001 -8.66026,5.000001 m 8.66026,-5.000001 4.33012,2.5 m 0,29.999999 V 80 m 0,30 -12.99038,7.5 m 17.32051,-15 -4.33013,-2.5 m 8.66026,15 -8.66026,-5 m 8.66026,-5 -4.33013,-2.5 m 4.33014,-60.500033 -15.58846,9 m 15.58846,-9 15.58842,9 M 233.82686,105 v 10 m 0,-55.000034 v 5.000001 m -17.32051,-10 -4.33012,-2.5 v -5.000001 m 6.06217,3.500001 -1.73205,1.000001 m 25.98076,2.999999 -0.86602,-0.499999 -0.86603,-0.500002 m -13.8564,0 -1.73205,1.000001 m -4.33013,-2.5 -2.59808,-1.5 v -1.999999 m 0,0 z m 0,0 -1.73205,0.999998 m 6.06218,1.5 -1.73205,1.000001 m 6.06218,3.5 -1.73205,1.000001 m 1.73205,-3.000002 v 2.000001 l 2.59807,1.5 m 1.73205,-1.000001 -1.73205,1.000001 m 8.66026,0 -1.73205,-1.000001 m 6.06217,0.500002 -1.73205,-1.000001 m 0,-2.000001 v 2.000001 l -2.59807,1.5 m -15.58846,-12 -1.73205,-1 m -2.59808,1.499999 -1.73205,-0.999998 m 4.33013,-2.5 v 1.999999 l -2.59808,1.499999 m 4.33013,-2.5 v 2.000001 l -4.33013,2.500001 v -2.000002 m 8.66026,-4.999997 -1.73205,-1.000001 m 6.06217,0.499999 -1.73205,-1.000001 m 0,-1.999998 v 1.999998 l -2.59807,1.500003 m 4.33012,-2.500001 v 1.999999 l -4.33012,2.5 v -1.999998 m 24.24867,10.999999 -1.73204,-1.000001 m -2.59806,-6.5 -1.73204,1 m -6.9282,-6.000001 -1.73205,1.000001 m 6.06217,-0.499999 -1.73205,1.000001 m -2.59807,-3.500001 v 1.999998 l 2.59807,1.500003 m 0,0 v 1.999998 l -4.33012,-2.5 v -1.999999 m 10.39229,4 v 1.999999 l 2.59806,1.499999 m 0,0 v 2.000002 l -4.3301,-2.500001 v -2.000001 m 4.3301,7.500001 -2.59806,1.5 m 0,0 -1.73204,-1.000001 m 4.3301,-2.499998 v 1.999999 m -4.3301,-7.500001 1.73204,-0.999998 m 4.3301,2.5 -1.73204,0.999998 m 1.73204,4 -1.73204,-0.999998 m -4.3301,-5.500002 -4.33013,-2.499997 m 11.25829,6.499997 -2.59806,-1.5 m -15.58843,-8.999997 -2.59808,1.499999 m 2.59808,-1.499999 2.59808,1.499999 m -13.85641,4.999998 4.33013,-2.499997 m -8.66026,4.999997 -0.86602,0.500002 m 0,0 -1.73205,0.999998 m 2.59807,1.500002 -1.73205,-1 -0.86603,-0.5 m 11.25834,6.499998 -4.33013,-2.5 m 11.25833,6.5 -2.59808,-1.5 m 5.19616,0 -2.59808,1.5 m 11.25833,-6.5 -4.33013,2.5 m 11.25829,-6.5 -2.59806,1.500002 m -28.57881,5.5 -4.33013,-2.5 m 0,-2.000002 v 2.000002 m 4.33013,0.499999 v 2.000001 m -8.66025,-7.000001 4.33012,2.5 m 12.99038,7.5 v 2.000001 l -4.33012,-2.5 v -2.000001 m 17.3205,0 v 2.000001 l -4.33012,2.5 v -2.000001 m 12.99034,-7.500001 v 2.000002 l -4.3301,2.5 v -2.000001 m -21.65062,2.5 -4.33013,-2.5 m 12.99038,7.5 -4.33013,-2.5 m 8.66026,0 -4.33013,2.5 m 12.99037,-7.5 -4.33012,2.5 m -30.31088,-7.500001 4.33012,-2.499998 m 8.66026,-5 -4.33013,2.5 m 17.32051,-5 -4.33013,-2.500001 -4.33013,2.500001 m 17.3205,5 -4.33012,-2.5 m -8.66025,25 -17.32051,-10.000001 m 0,25.000033 1e-5,-25.000033 m 34.64097,0 V 94.99997 m 0,-40.000003 -17.32047,10.000001 m 0,40.000032 v 0 -40.000032 M 255.47743,102.5 233.82686,115 M 251.14733,94.99997 233.82687,105 m 17.32052,-10 4.3301,7.5 m -6e-5,-55.000034 -4.3301,2.5 m 4.3301,-2.5 -4.3301,-2.499998 m 0,9.999999 4.3301,-2.5 V 47.499966 M 164.54483,100 l 12.99038,7.5 m -17.32051,-5 4.33013,-2.5 m 0,-20.000001 L 177.53521,87.5 M 168.87495,77.499999 177.53521,82.5 m -8.66026,-5.000001 -4.33012,2.5 m 0,30.000001 V 80 m 0,30 12.99038,7.5 m -21.65064,-2.5 8.66026,-5 m -8.66026,-5 4.33013,-2.5 m -4.33014,-60.5 15.58846,9 m -15.58846,-9 -15.58845,9 m 15.58846,54 v 10 m 0,-55.000001 V 65 m 17.32051,-10 4.33012,-2.5 V 47.499999 M 171.47303,51 l 1.73205,1.000001 M 147.22432,55 l 0.86602,-0.499999 0.86603,-0.500002 m 13.8564,0 L 164.54482,55 m 4.33013,-2.5 2.59808,-1.5 v -1.999999 m 0,0 z m 0,0 1.73205,0.999998 m -6.06218,1.5 1.73205,1.000001 m -6.06218,3.5 1.73205,1.000001 m -1.73205,-3.000002 V 56 l -2.59807,1.5 M 158.48265,56.499999 160.2147,57.5 m -8.66026,0 1.73205,-1.000001 M 147.22432,57.000001 148.95637,56 m 0,-2.000001 V 56 l 2.59807,1.5 m 15.58846,-12 1.73205,-1 m 2.59808,1.499999 1.73205,-0.999998 m -4.33013,-2.5 V 44.5 l 2.59808,1.499999 m -4.33013,-2.5 V 45.5 l 4.33013,2.500001 v -2.000002 m -8.66026,-4.999997 1.73205,-1.000001 M 158.48265,40.5 160.2147,39.499999 m 0,-1.999998 v 1.999998 l 2.59807,1.500003 m -4.33012,-2.500001 V 40.5 l 4.33012,2.5 V 41.000002 M 138.56406,52.000001 140.29611,51 m 2.59808,-6.5 1.73205,1 m 6.9282,-6.000001 1.73205,1.000001 m -6.06217,-0.499999 1.73205,1.000001 m 2.59807,-3.500001 v 1.999998 l -2.59807,1.500003 m 0,0 V 43 l 4.33012,-2.5 v -1.999999 m -10.3923,4 V 44.5 l -2.59808,1.499999 m 0,0 v 2.000002 L 144.62624,45.5 V 43.499999 M 140.29611,51 l 2.59808,1.5 m 0,0 1.73205,-1.000001 m -4.33013,-2.499998 V 51 m 4.33013,-7.500001 -1.73205,-0.999998 m -4.33013,2.5 1.73205,0.999998 m -1.73205,4 1.73205,-0.999998 m 4.33013,-5.500002 4.33013,-2.499997 m -11.25833,6.499997 2.59807,-1.5 m 15.58846,-8.999997 2.59808,1.499999 m -2.59808,-1.499999 -2.59808,1.499999 m 13.85641,4.999998 -4.33013,-2.499997 m 8.66026,4.999997 0.86602,0.500002 m 0,0 1.73205,0.999998 m -2.59807,1.500002 1.73205,-1 0.86603,-0.5 m -11.25834,6.499998 4.33013,-2.5 m -11.25833,6.5 2.59808,-1.5 m -5.19616,0 2.59808,1.5 m -11.25833,-6.5 4.33013,2.5 m -11.25833,-6.5 2.59807,1.500002 m 28.57884,5.5 4.33013,-2.5 m 0,-2.000002 v 2.000002 M 168.87495,52.5 v 2.000001 M 177.5352,47.5 173.20508,50 m -12.99038,7.5 v 2.000001 l 4.33012,-2.5 V 55 m -17.3205,0 v 2.000001 l 4.33012,2.5 V 57.5 m -12.99038,-7.500001 v 2.000002 l 4.33013,2.5 V 52.5 m 21.65063,2.5 4.33013,-2.5 m -12.99038,7.5 4.33013,-2.5 m -8.66026,0 4.33013,2.5 m -12.99038,-7.5 4.33013,2.5 m 30.31088,-7.500001 -4.33012,-2.499998 m -8.66026,-5 4.33013,2.5 m -17.32051,-5 L 155.88457,35 l 4.33013,2.500001 m -17.32051,5 4.33013,-2.5 m 8.66025,25 L 173.20508,55 m 0,25.000453 L 173.20507,55 m -34.64101,0 v 40 m 0,-40 17.32051,10.000001 m 0,39.999999 v 0 -39.999999 M 134.23394,102.5 155.88457,115 M 138.56406,94.999999 155.88456,105 m -17.3205,-10 -4.33012,7.5 m 0,-55.000001 4.33012,2.5 m -4.33012,-2.5 4.33012,-2.499998 m 0,9.999999 -4.33012,-2.5 V 47.499999 M 194.85571,64.5 l 15.58846,9 m -15.58846,-9 -15.58845,9 m 15.58846,54 v 10 m 17.32051,-20 4.33012,7.5 M 194.85572,137.5 216.50635,125 M 194.85572,82.499999 V 87.5 m 17.32051,-10 4.33012,-2.5 V 69.999999 M 210.44418,73.5 l 1.73205,1.000001 M 186.19547,77.5 l 0.86602,-0.499999 0.86603,-0.500002 m 13.8564,0 1.73205,1.000001 m 4.33013,-2.5 2.59808,-1.5 v -1.999999 m 0,0 z m 0,0 1.73205,0.999998 m -6.06218,1.5 L 207.8461,75 m -6.06218,3.5 1.73205,1.000001 m -1.73205,-3.000002 V 78.5 L 199.18585,80 M 197.4538,78.999999 199.18585,80 m -8.66026,0 1.73205,-1.000001 M 186.19547,79.500001 187.92752,78.5 m 0,-2.000001 V 78.5 l 2.59807,1.5 m 15.58846,-12 1.73205,-1 m 2.59808,1.499999 1.73205,-0.999998 m -4.33013,-2.5 V 67 l 2.59808,1.499999 m -4.33013,-2.5 V 68 l 4.33013,2.500001 v -2.000002 m -8.66026,-4.999997 1.73205,-1.000001 M 197.4538,63 l 1.73205,-1.000001 m 0,-1.999998 v 1.999998 l 2.59807,1.500003 M 197.4538,61.000001 V 63 l 4.33012,2.5 V 63.500002 M 177.53521,74.500001 179.26726,73.5 m 2.59808,-6.5 1.73205,1 m 6.9282,-6.000001 L 192.25764,63 m -6.06217,-0.499999 1.73205,1.000001 m 2.59807,-3.500001 v 1.999998 l -2.59807,1.500003 m 0,0 V 65.5 l 4.33012,-2.5 v -1.999999 m -10.3923,4 V 67 l -2.59808,1.499999 m 0,0 v 2.000002 L 183.59739,68 V 65.999999 M 179.26726,73.5 181.86534,75 m 0,0 1.73205,-1.000001 m -4.33013,-2.499998 V 73.5 m 4.33013,-7.500001 -1.73205,-0.999998 m -4.33013,2.5 1.73205,0.999998 m -1.73205,4 1.73205,-0.999998 m 4.33013,-5.500002 4.33013,-2.499997 m -11.25833,6.499997 2.59807,-1.5 m 15.58846,-8.999997 2.59808,1.499999 m -2.59808,-1.499999 -2.59808,1.499999 m 13.85641,4.999998 -4.33013,-2.499997 m 8.66026,4.999997 0.86602,0.500002 m 0,0 1.73205,0.999998 m -2.59807,1.500002 1.73205,-1 0.86603,-0.5 m -11.25834,6.499998 4.33013,-2.5 m -11.25833,6.5 2.59808,-1.5 m -5.19616,0 2.59808,1.5 m -11.25833,-6.5 4.33013,2.5 m -11.25833,-6.5 2.59807,1.500002 m 28.57884,5.5 4.33013,-2.5 m 0,-2.000002 v 2.000002 M 207.8461,75 v 2.000001 m 8.66025,-7.000002 -4.33012,2.5 M 199.18585,80 v 2.000001 l 4.33012,-2.5 V 77.5 m -17.3205,0 v 2.000001 l 4.33012,2.5 V 80 m -12.99038,-7.500001 v 2.000002 l 4.33013,2.5 V 75 m 21.65063,2.5 4.33013,-2.5 m -12.99038,7.5 4.33013,-2.5 m -8.66026,0 4.33013,2.5 m -12.99038,-7.5 4.33013,2.5 m 30.31088,-7.500001 -4.33012,-2.499998 m -8.66026,-5 4.33013,2.5 m -17.32051,-5 4.33013,-2.500001 4.33013,2.500001 m -17.32051,5 4.33013,-2.5 m 8.66025,25 L 212.17623,77.5 m 0,40 v 0 -40 m -34.64102,0 v 40 m 0,-40 17.32051,10.000001 m 0,39.999999 v 0 -39.999999 M 177.53521,117.5 l 17.32051,10 17.32051,-10 m -38.97114,7.5 21.65063,12.5 m -17.32051,-20 -4.33012,7.5 m 0,-55.000001 4.33012,2.5 m -4.33012,-2.5 4.33012,-2.499998 m 0,9.999999 -4.33012,-2.5 v -5.000001" />
    </g>
  </g>
</svg>
